<mxfile host="app.diagrams.net" modified="2024-03-22T21:48:20.689Z" agent="Mozilla/5.0 (X11; Linux x86_64; rv:123.0) Gecko/20100101 Firefox/123.0" version="24.0.8" etag="fHYXC9FnzNPbw1E7XkfX" type="github">
  <diagram name="PÃ¡gina-1" id="PDqU_BtAE71XY_fwOaKv">
    <mxGraphModel>
      <root>
        <mxCell id="0" />
        <mxCell id="1" parent="0" />
      </root>
    </mxGraphModel>
  </diagram>
</mxfile>
